<svg xmlns="http://www.w3.org/2000/svg" width="350px" viewBox="0 0 90 62">
    <path d="M53.956 7.44a22.395 22.395 0 00-17.596 8.583 16.064 16.064 0 00-8.012-2.157A16.064 16.064 0 0012.284 29.93a16.064 16.064 0 00.159 2.11A14.962 14.962 0 000 46.82c0 8.31 6.69 15 15 15h60c8.31 0 15-6.69 15-15 0-7.889-6.03-14.313-13.75-14.945a22.395 22.395 0 00.1-2.04A22.395 22.395 0 0053.957 7.442z"
          fill="#f54040" style="&#10;    stroke: #f54040;&#10;" opacity="0.2"/>
    <path fill="none" stroke="#f54040" stroke-width="2.00045261" stroke-linecap="round" stroke-linejoin="round"
          d="M43.405 36.798h26.892"/>
    <path d="M67.309 36.798v20.916a2.988 2.988 0 01-2.988 2.988H49.38a2.988 2.988 0 01-2.988-2.988V36.798m4.482 0V33.81a2.988 2.988 0 012.988-2.988h5.976a2.988 2.988 0 012.988 2.988v2.988M53.863 44.268v8.964M59.84 44.268v8.964"
          fill="none" stroke-width="2" stroke-linecap="round" stroke-linejoin="round"
          style="&#10;    stroke: #f54040;&#10;" stroke="#f54040"/>
    <g fill="none" fill-rule="evenodd">
        <path d="M39.465 11.95c-.184-.967-.106-1.979.466-2.838 1.648-2.475 4.913.134 4.871 1.832-.042 1.698-2.003 4.951-3.037 4.67-.413-.112-1.05-.775-1.562-1.689l-1.481 3.743-2.891-1.645z"
              fill="#d4a181"/>
        <path fill="#ba8b72" d="M35.186 59.505h2.396L35.19 28.878h-7.468l5.076 17.493z"/>
        <path d="M25.44 28.878c.354 9.088.215 14.045.135 14.87-.079.826-.529 6.355-3.596 16.035h2.493c4.061-9.286 5.48-14.816 5.945-16.035.466-1.22 1.842-6.176 3.85-14.87z"
              fill="#d4a181"/>
        <path d="M27.613 28.878c1.32 6.02 3.604 15.628 6.851 28.826h3.505c.26-13.546-.842-22.462-2.75-28.826z"
              fill="#69a1ac"/>
        <path d="M25.422 28.878c.347 9.088-.552 18.04-3.337 28.967h3.74c4.07-9.147 6.986-18.055 8.979-28.967z"
              fill="#89c5cc"/>
        <path d="M21.624 61.584l.137-2.217c.806.235 1.814.143 3.026-.277 1.303.923 2.944 1.553 4.922 1.89a.277.277 0 01.22.35l-.19.67h-7.84zM34.65 61.584l.138-2.217c.806.235 1.814.143 3.026-.277 1.303.923 2.944 1.553 4.921 1.89a.277.277 0 01.22.35l-.19.67h-7.84z"
              fill="#191847"/>
        <g>
            <path d="M40.333 21.809l5.47-.39c1.124-.53 2.148-.872 3.072-1.026.257.009.66.127.02.592-.64.464-1.292.98-1.2 1.256.09.275.662.211.73.63.044.28-.876.265-2.761-.04l-4.511 1.451zm5.921 5.16l2.405-.174c.74-.902 1.298-1.27 1.676-1.104.35-.002-.746 1.064-.149 1.202.597.137 2.384-.242 2.521.064.203.453-.519 1.228-1.084 1.52-1.056.543-1.742.58-3.28.335-.805-.128-1.76-.083-2.863.135z"
                  fill="#d4a181"/>
            <path d="M38.448 20.299c1.54.686 3.73 1.299 6.543.915l-.02 2.3c-2.186.803-4.862 1.06-6.686.16-1.438-.708-1.374-2.811.163-3.375z"
                  fill="#2026a2"/>
            <path d="M39.107 24.305c1.44 1.151 4.386 1.923 8.837 2.316.049 2.4-.155 4.001-.61 4.804-4.07.21-7.234-.316-9.575-1.329-.557 1.41-1.325 2.642-2.436 3.58-2.284 1.928-8.01-3.454-10.492-4.05.697-5.284 4.317-5.901 5.678-8.863 1.49-3.243 6.385-7.042 6.768-6.866l3.495 1.603c-.943 2.566-1.225 5.742-1.665 8.805z"
                  fill="#1f28cf"/>
        </g>
    </g>
    <path fill="none" d="M42.418 31.074H66.23v28.254H42.418z"/>
    <g fill="none" fill-rule="evenodd">
        <path d="M43.455 9.923c-.516-.01-1.031.236-1.677.576a.83.83 0 00-1.452.734c-.303.137-.632.273-.992.4-.516-.94-.294-2.675 1.248-3.573 2.223-2.305 4.947 1.525 5.923 1.488-.414 1.065-1.376 1.558-3.05.375z"
              fill="#191847"/>
    </g>
</svg>